<?xml version="1.0" standalone="no"?>
<!DOCTYPE svg PUBLIC "-//W3C//DTD SVG 20010904//EN"
 "http://www.w3.org/TR/2001/REC-SVG-20010904/DTD/svg10.dtd">
<svg version="1.0" xmlns="http://www.w3.org/2000/svg"
 width="800.000000pt" height="560.000000pt" viewBox="0 0 800.000000 560.000000"
 preserveAspectRatio="xMidYMid meet">

<g transform="translate(0.000000,560.000000) scale(0.100000,-0.100000)"
fill="#000000" stroke="none">
<path d="M0 2800 l0 -2800 4000 0 4000 0 0 2800 0 2800 -4000 0 -4000 0 0
-2800z m5672 1057 c906 -579 1648 -1054 1648 -1057 0 -10 -3305 -2114 -3320
-2114 -15 0 -3320 2104 -3320 2114 0 13 3316 2120 3329 2115 8 -3 756 -479
1663 -1058z"/>
<path d="M3850 4194 c-149 -18 -347 -77 -475 -141 -247 -123 -483 -353 -610
-595 l-48 -91 45 6 c322 44 736 31 1081 -33 514 -97 1024 -328 1441 -654 54
-43 101 -74 105 -71 3 4 6 86 5 183 0 197 -18 306 -75 469 -113 323 -365 614
-668 771 -203 106 -381 151 -611 157 -85 2 -171 1 -190 -1z m616 -944 c13 0
14 -3 4 -15 -7 -8 -10 -22 -6 -30 4 -12 2 -13 -12 -6 -11 6 -24 6 -36 -1 -16
-9 -18 -8 -12 7 3 10 1 24 -5 31 -9 11 -8 14 4 14 9 0 19 10 23 22 l7 23 8
-23 c5 -12 16 -22 25 -22z"/>
<path d="M2943 3353 c-36 -5 -39 -14 -24 -88 7 -32 9 -34 10 -12 1 23 5 27 31
27 22 0 33 -7 43 -27 14 -25 14 -24 15 30 0 46 -3 59 -18 67 -10 6 -20 9 -22
8 -2 0 -18 -3 -35 -5z m57 -33 c0 -11 -6 -20 -12 -20 -7 0 -23 -3 -35 -6 -20
-5 -23 -2 -23 20 0 23 4 26 35 26 28 0 35 -4 35 -20z"/>
<path d="M3090 3300 l0 -60 38 0 c45 0 72 23 72 62 0 34 -30 58 -73 58 l-37 0
0 -60z m71 40 c29 -16 26 -67 -5 -82 -39 -17 -56 -4 -56 41 0 48 21 62 61 41z"/>
<path d="M3260 3300 c0 -56 1 -60 24 -60 13 0 38 -3 55 -6 20 -4 31 -3 31 5 0
7 -20 11 -51 11 -47 0 -50 2 -47 23 3 19 8 22 41 19 22 -2 37 1 37 7 0 6 -15
11 -33 11 -37 0 -48 6 -41 24 3 7 21 10 49 8 28 -3 45 0 45 7 0 7 -22 11 -55
11 l-55 0 0 -60z"/>
<path d="M3436 3335 c-3 -9 -6 -38 -5 -63 l1 -47 12 45 12 45 8 -40 c12 -62
18 -63 43 -10 l23 50 -4 -47 c-2 -27 0 -48 5 -48 5 0 9 12 9 28 0 15 3 44 6
65 10 55 -17 49 -43 -10 l-20 -48 -9 44 c-10 47 -27 63 -38 36z"/>
<path d="M2760 3320 c-31 -31 -22 -78 21 -100 54 -30 98 68 47 104 -30 21 -44
20 -68 -4z m71 -21 c8 -16 8 -28 0 -45 -18 -41 -71 -25 -71 21 0 44 50 61 71
24z"/>
<path d="M3713 3257 c-5 -29 -8 -54 -7 -56 6 -8 85 -18 89 -11 3 4 -14 10 -36
14 -31 5 -40 10 -37 24 3 13 12 16 37 14 22 -2 31 0 26 7 -3 6 -17 11 -31 11
-15 0 -24 6 -24 16 0 13 7 15 43 9 27 -5 38 -4 32 3 -5 5 -27 12 -47 15 l-37
6 -8 -52z"/>
<path d="M3976 3219 c-19 -62 -19 -69 -6 -69 6 0 10 9 10 20 0 17 5 19 43 14
32 -5 46 -2 56 10 17 20 8 44 -21 55 -68 25 -66 26 -82 -30z m63 20 c30 -11
43 -38 19 -40 -48 -5 -72 9 -62 34 7 20 4 20 43 6z"/>
<path d="M4155 3208 c-15 -42 -35 -101 -35 -104 0 -2 5 -4 10 -4 6 0 10 6 10
14 0 21 17 29 46 22 19 -5 24 -13 24 -39 1 -27 2 -29 11 -14 6 10 8 24 5 32
-2 7 2 16 10 19 8 3 14 17 14 31 0 20 -8 29 -35 41 -42 17 -54 18 -60 2z m72
-30 c17 -14 7 -28 -20 -28 -32 0 -51 15 -44 35 7 17 38 14 64 -7z"/>
<path d="M2990 3194 c-87 -8 -304 -35 -326 -40 -59 -15 -82 -424 -36 -633 67
-298 193 -525 409 -731 196 -188 408 -300 684 -362 145 -32 405 -32 556 0 349
75 639 261 853 547 67 89 158 261 186 350 l19 58 -50 44 c-87 78 -268 210
-396 289 -395 246 -823 397 -1300 460 -110 14 -508 26 -599 18z m-96 -124 c20
-1 20 -1 3 -14 -10 -8 -15 -20 -11 -30 7 -18 -7 -21 -23 -5 -8 8 -13 8 -17 0
-11 -17 -26 -13 -19 5 4 11 -1 22 -12 30 -18 13 -18 14 4 14 15 0 25 7 29 22
l5 22 10 -22 c6 -12 19 -22 31 -22z m1500 -183 c16 -15 7 -42 -14 -42 -20 0
-30 26 -16 42 14 16 15 16 30 0z m-899 -127 c10 0 11 -5 2 -22 -11 -25 -62
-37 -53 -12 3 7 -3 18 -12 23 -15 9 -14 10 6 11 14 0 22 6 22 18 1 16 1 16 11
0 5 -10 16 -18 24 -18z m515 -155 c0 -8 7 -15 16 -15 13 0 14 -3 4 -15 -6 -8
-9 -18 -6 -23 3 -5 -8 -9 -24 -9 -16 0 -27 4 -24 9 3 5 0 15 -6 23 -10 12 -9
15 4 15 9 0 16 7 16 15 0 8 5 15 10 15 6 0 10 -7 10 -15z m-877 -61 c-7 -18
-33 -18 -33 -1 0 19 10 27 25 20 8 -2 11 -11 8 -19z m-120 -64 c16 0 18 -3 9
-12 -7 -7 -12 -21 -12 -32 0 -15 -3 -17 -12 -8 -8 8 -17 8 -31 0 -17 -9 -19
-8 -14 11 3 13 -1 25 -11 31 -15 8 -14 9 4 10 13 0 25 9 29 23 l8 22 4 -22 c3
-15 12 -23 26 -23z m1173 -10 c8 0 14 -4 14 -10 0 -5 -5 -10 -11 -10 -6 0 -8
-9 -4 -22 6 -18 5 -21 -5 -11 -9 8 -19 9 -31 3 -14 -8 -16 -6 -12 9 3 10 -1
22 -7 26 -8 5 -4 11 12 19 12 7 25 8 26 4 2 -4 10 -8 18 -8z m-312 -3 c16 -15
7 -42 -14 -42 -20 0 -30 26 -16 42 14 16 15 16 30 0z m-1054 -102 c0 -8 8 -15
18 -15 14 0 14 -2 3 -9 -8 -5 -12 -15 -9 -22 4 -10 -3 -14 -23 -14 -21 0 -28
4 -24 14 3 8 0 18 -7 23 -10 6 -8 8 5 8 9 0 17 7 17 15 0 8 5 15 10 15 6 0 10
-7 10 -15z m483 -25 c19 -1 20 -2 5 -11 -9 -5 -15 -16 -12 -23 9 -25 -42 -13
-53 12 -9 17 -8 22 3 22 8 0 18 8 22 18 6 16 7 16 10 0 2 -11 13 -18 25 -18z
m642 9 c2 -8 -5 -15 -15 -15 -15 0 -17 6 -11 34 2 10 25 -6 26 -19z m1045 -4
c0 -9 9 -15 21 -15 18 0 19 -2 9 -15 -7 -8 -10 -24 -7 -35 4 -17 2 -18 -15 -9
-14 8 -23 7 -35 -2 -13 -11 -14 -10 -11 7 1 12 -3 28 -11 37 -12 15 -11 17 8
17 12 0 21 6 21 15 0 8 5 15 10 15 6 0 10 -7 10 -15z m207 -35 c12 0 13 -3 4
-13 -6 -8 -8 -16 -5 -19 2 -3 -7 -5 -21 -5 -14 0 -23 2 -21 5 3 3 1 11 -5 19
-9 10 -8 13 5 13 9 0 16 6 17 13 0 10 2 10 6 0 2 -7 12 -13 20 -13z m-127
-110 c10 0 10 -3 0 -15 -6 -8 -9 -18 -6 -23 3 -5 -8 -9 -25 -9 -19 0 -28 5
-25 12 2 7 -1 18 -7 24 -8 8 -7 11 6 11 9 0 17 8 17 18 1 16 1 16 14 0 7 -10
19 -18 26 -18z m-1817 -20 c-6 -21 -41 -23 -45 -2 -5 23 22 43 37 28 7 -6 10
-17 8 -26z m757 25 c0 -9 9 -15 22 -15 17 0 19 -3 10 -12 -7 -7 -12 -19 -12
-27 0 -11 -10 -16 -30 -16 -20 0 -30 5 -30 16 0 8 -5 20 -12 27 -9 9 -7 12 10
12 13 0 22 6 22 15 0 8 5 15 10 15 6 0 10 -7 10 -15z m973 -115 c19 -1 20 -2
5 -11 -9 -5 -15 -16 -12 -23 9 -25 -42 -13 -53 12 -9 17 -8 22 3 22 8 0 18 8
22 18 6 16 7 16 10 0 2 -11 13 -18 25 -18z m-1508 -10 c15 0 16 -2 4 -17 -8
-9 -12 -25 -11 -37 3 -17 2 -18 -11 -7 -11 9 -21 10 -35 2 -17 -9 -18 -7 -14
14 2 15 0 25 -7 25 -6 0 -11 5 -11 10 0 6 9 10 20 10 12 0 20 7 20 18 1 16 1
16 14 0 7 -10 21 -18 31 -18z m1243 -40 c14 0 14 -2 3 -9 -7 -5 -11 -13 -7
-19 3 -5 -5 -9 -19 -9 -14 0 -22 4 -19 9 4 6 0 14 -7 19 -11 7 -10 9 4 9 9 0
17 6 18 13 0 10 2 10 6 0 2 -7 12 -13 21 -13z m-386 -32 c-5 -21 -34 -20 -43
2 -3 8 -1 19 5 26 16 16 45 -4 38 -28z m526 14 c16 -11 3 -47 -18 -47 -21 0
-34 36 -18 47 7 4 15 8 18 8 3 0 11 -4 18 -8z m-308 -23 c0 -5 5 -7 12 -3 8 5
9 2 5 -10 -4 -10 -7 -21 -7 -26 0 -4 -8 -7 -17 -6 -23 1 -33 26 -19 43 14 15
26 16 26 2z m160 -79 c0 -5 7 -10 16 -10 13 0 14 -3 5 -14 -6 -7 -8 -22 -4
-32 6 -17 5 -17 -10 -5 -14 11 -20 11 -34 0 -15 -12 -16 -12 -10 5 4 10 2 25
-4 32 -9 11 -8 14 5 14 9 0 16 5 16 10 0 6 5 10 10 10 6 0 10 -4 10 -10z
m-259 -50 c12 0 12 -2 0 -9 -8 -5 -12 -15 -9 -22 4 -10 -3 -14 -23 -14 -18 0
-27 5 -25 11 2 6 -1 17 -7 23 -8 8 -7 11 6 11 9 0 17 8 17 18 1 16 1 16 14 0
7 -10 19 -18 27 -18z m263 -103 c16 -15 7 -42 -14 -42 -20 0 -30 26 -16 42 14
16 15 16 30 0z m-704 -62 c0 -8 -4 -15 -10 -15 -5 0 -10 7 -10 15 0 8 5 15 10
15 6 0 10 -7 10 -15z"/>
<path d="M4316 3128 c-21 -30 -20 -61 3 -82 44 -40 106 12 85 71 -13 38 -65
45 -88 11z m68 -9 c22 -31 6 -64 -30 -64 -25 0 -30 4 -32 30 -3 19 2 33 14 42
24 18 30 17 48 -8z"/>
<path d="M4482 3070 c-24 -23 -29 -69 -10 -88 7 -7 25 -12 41 -12 16 0 26 -4
22 -10 -3 -5 -3 -10 2 -10 12 0 33 51 33 80 0 29 -27 60 -51 60 -9 0 -25 -9
-37 -20z m69 -22 c10 -18 8 -24 -7 -35 -10 -7 -14 -13 -9 -13 5 0 4 -5 -2 -11
-19 -19 -53 -1 -53 30 0 50 49 70 71 29z"/>
<path d="M4624 2979 c-14 -28 -23 -53 -20 -56 2 -3 9 5 16 16 10 20 12 20 40
6 26 -13 29 -20 24 -42 -5 -18 -4 -24 5 -19 6 4 11 14 11 22 0 9 10 24 21 33
29 23 18 53 -26 74 -20 9 -38 17 -40 17 -3 0 -16 -23 -31 -51z m66 16 c50 -26
31 -56 -21 -35 -32 14 -31 12 -23 34 8 20 8 20 44 1z"/>
<path d="M4778 2901 c-16 -27 -28 -51 -28 -54 0 -5 88 -57 96 -57 16 0 -3 20
-36 39 -42 24 -47 30 -29 48 8 8 20 6 45 -9 19 -11 34 -15 34 -10 0 6 -9 13
-19 17 -28 9 -46 34 -34 46 7 7 21 4 44 -10 37 -23 54 -27 44 -11 -5 9 -78 50
-87 50 -2 0 -15 -22 -30 -49z"/>
<path d="M4947 2843 c-14 -13 -6 -38 20 -65 18 -19 24 -31 17 -38 -16 -16 -44
-1 -56 29 -10 23 -12 24 -16 6 -6 -25 34 -57 67 -53 35 4 37 29 6 66 -30 36
-31 42 -4 42 12 0 23 -8 26 -20 3 -11 12 -20 20 -20 11 0 11 4 3 20 -17 31
-66 51 -83 33z"/>
<path d="M5085 2739 c-4 -5 5 -27 19 -48 14 -20 26 -41 26 -45 0 -17 -46 1
-55 22 -11 25 -25 29 -25 8 0 -21 50 -57 74 -54 28 4 32 40 6 63 -18 16 -28
55 -14 55 15 0 44 -22 44 -35 0 -7 5 -17 10 -20 18 -11 10 25 -10 45 -21 21
-65 27 -75 9z"/>
<path d="M5217 2622 c-30 -33 -13 -102 24 -102 15 0 53 21 61 34 12 17 9 61
-4 74 -18 18 -63 14 -81 -6z m67 -8 c20 -19 20 -24 0 -52 -17 -24 -43 -29 -62
-10 -17 17 -15 35 8 58 24 24 34 25 54 4z"/>
</g>
</svg>
